<mxfile host="app.diagrams.net" modified="2023-05-19T16:07:17.344Z" agent="Mozilla/5.0 (Windows NT 10.0; Win64; x64) AppleWebKit/537.36 (KHTML, like Gecko) Chrome/113.0.0.0 Safari/537.36" etag="Z1-GASyxdlv9AEcSR7bH" version="21.3.2" type="github">
  <diagram name="Page-1" id="ptqF46JkStDB1N-qUOx_">
    <mxGraphModel dx="1114" dy="576" grid="1" gridSize="10" guides="1" tooltips="1" connect="1" arrows="1" fold="1" page="1" pageScale="1" pageWidth="827" pageHeight="1169" math="0" shadow="0">
      <root>
        <mxCell id="0" />
        <mxCell id="1" parent="0" />
        <mxCell id="HR6nC0uiJFTiaysMqOgH-27" value="" style="edgeStyle=orthogonalEdgeStyle;rounded=0;orthogonalLoop=1;jettySize=auto;html=1;entryX=0;entryY=0.5;entryDx=0;entryDy=0;endArrow=none;endFill=0;" parent="1" source="RQx9iSCu71bE9roLs_1m-1" target="HR6nC0uiJFTiaysMqOgH-1" edge="1">
          <mxGeometry relative="1" as="geometry">
            <mxPoint x="159.99999999999977" y="360" as="targetPoint" />
            <Array as="points">
              <mxPoint x="200" y="360" />
              <mxPoint x="200" y="120" />
            </Array>
          </mxGeometry>
        </mxCell>
        <mxCell id="RQx9iSCu71bE9roLs_1m-1" value="Visitor" style="shape=umlActor;verticalLabelPosition=bottom;verticalAlign=top;html=1;" parent="1" vertex="1">
          <mxGeometry x="50" y="340" width="20" height="40" as="geometry" />
        </mxCell>
        <mxCell id="HR6nC0uiJFTiaysMqOgH-1" value="&lt;font style=&quot;font-size: 10px;&quot;&gt;Melihat Paket Wedding&lt;/font&gt;" style="ellipse;whiteSpace=wrap;html=1;" parent="1" vertex="1">
          <mxGeometry x="280" y="100" width="120" height="40" as="geometry" />
        </mxCell>
        <mxCell id="HR6nC0uiJFTiaysMqOgH-30" style="edgeStyle=orthogonalEdgeStyle;rounded=0;orthogonalLoop=1;jettySize=auto;html=1;endArrow=none;endFill=0;" parent="1" source="HR6nC0uiJFTiaysMqOgH-13" edge="1">
          <mxGeometry relative="1" as="geometry">
            <mxPoint x="70" y="360" as="targetPoint" />
            <Array as="points">
              <mxPoint x="200" y="180" />
              <mxPoint x="200" y="360" />
            </Array>
          </mxGeometry>
        </mxCell>
        <mxCell id="HR6nC0uiJFTiaysMqOgH-13" value="&lt;font style=&quot;font-size: 10px;&quot;&gt;Melihat Jenis Paket&amp;nbsp;&lt;/font&gt;" style="ellipse;whiteSpace=wrap;html=1;" parent="1" vertex="1">
          <mxGeometry x="280" y="160" width="120" height="40" as="geometry" />
        </mxCell>
        <mxCell id="HR6nC0uiJFTiaysMqOgH-31" style="edgeStyle=orthogonalEdgeStyle;rounded=0;orthogonalLoop=1;jettySize=auto;html=1;exitX=0;exitY=0.5;exitDx=0;exitDy=0;endArrow=none;endFill=0;" parent="1" source="HR6nC0uiJFTiaysMqOgH-14" edge="1">
          <mxGeometry relative="1" as="geometry">
            <mxPoint x="70" y="359.9999999999999" as="targetPoint" />
            <Array as="points">
              <mxPoint x="200" y="240" />
              <mxPoint x="200" y="360" />
            </Array>
          </mxGeometry>
        </mxCell>
        <mxCell id="HR6nC0uiJFTiaysMqOgH-14" value="&lt;font style=&quot;font-size: 10px;&quot;&gt;Melihat Petunjuk dan Syarat&lt;/font&gt;" style="ellipse;whiteSpace=wrap;html=1;" parent="1" vertex="1">
          <mxGeometry x="280" y="220" width="120" height="40" as="geometry" />
        </mxCell>
        <mxCell id="HR6nC0uiJFTiaysMqOgH-32" style="edgeStyle=orthogonalEdgeStyle;rounded=0;orthogonalLoop=1;jettySize=auto;html=1;endArrow=none;endFill=0;" parent="1" source="HR6nC0uiJFTiaysMqOgH-15" edge="1">
          <mxGeometry relative="1" as="geometry">
            <mxPoint x="70" y="359.9999999999999" as="targetPoint" />
            <Array as="points">
              <mxPoint x="200" y="300" />
              <mxPoint x="200" y="360" />
            </Array>
          </mxGeometry>
        </mxCell>
        <mxCell id="HR6nC0uiJFTiaysMqOgH-15" value="Melihat Galeri" style="ellipse;whiteSpace=wrap;html=1;" parent="1" vertex="1">
          <mxGeometry x="280" y="280" width="120" height="40" as="geometry" />
        </mxCell>
        <mxCell id="HR6nC0uiJFTiaysMqOgH-34" style="edgeStyle=orthogonalEdgeStyle;rounded=0;orthogonalLoop=1;jettySize=auto;html=1;exitX=0;exitY=0.5;exitDx=0;exitDy=0;endArrow=none;endFill=0;" parent="1" source="HR6nC0uiJFTiaysMqOgH-17" edge="1">
          <mxGeometry relative="1" as="geometry">
            <mxPoint x="70" y="360.2413793103449" as="targetPoint" />
          </mxGeometry>
        </mxCell>
        <mxCell id="HR6nC0uiJFTiaysMqOgH-17" value="Melihat Testimoni" style="ellipse;whiteSpace=wrap;html=1;fontSize=11;" parent="1" vertex="1">
          <mxGeometry x="280" y="340" width="120" height="40" as="geometry" />
        </mxCell>
        <mxCell id="HR6nC0uiJFTiaysMqOgH-35" style="edgeStyle=orthogonalEdgeStyle;rounded=0;orthogonalLoop=1;jettySize=auto;html=1;endArrow=none;endFill=0;" parent="1" source="HR6nC0uiJFTiaysMqOgH-18" edge="1">
          <mxGeometry relative="1" as="geometry">
            <mxPoint x="70" y="359.9999999999999" as="targetPoint" />
            <Array as="points">
              <mxPoint x="200" y="420" />
              <mxPoint x="200" y="360" />
            </Array>
          </mxGeometry>
        </mxCell>
        <mxCell id="HR6nC0uiJFTiaysMqOgH-18" value="&lt;font style=&quot;font-size: 10px;&quot;&gt;Melakukan Pendaftaran&lt;/font&gt;" style="ellipse;whiteSpace=wrap;html=1;" parent="1" vertex="1">
          <mxGeometry x="280" y="400" width="120" height="40" as="geometry" />
        </mxCell>
        <mxCell id="HR6nC0uiJFTiaysMqOgH-49" style="edgeStyle=orthogonalEdgeStyle;rounded=0;orthogonalLoop=1;jettySize=auto;html=1;entryX=0;entryY=0.5;entryDx=0;entryDy=0;dashed=1;" parent="1" source="HR6nC0uiJFTiaysMqOgH-19" target="HR6nC0uiJFTiaysMqOgH-40" edge="1">
          <mxGeometry relative="1" as="geometry">
            <Array as="points">
              <mxPoint x="480" y="480" />
              <mxPoint x="480" y="540" />
            </Array>
          </mxGeometry>
        </mxCell>
        <mxCell id="HR6nC0uiJFTiaysMqOgH-19" value="&lt;font style=&quot;font-size: 10px;&quot;&gt;Melakukan Pemesanan Paket Wedding&lt;/font&gt;" style="ellipse;whiteSpace=wrap;html=1;" parent="1" vertex="1">
          <mxGeometry x="280" y="460" width="120" height="40" as="geometry" />
        </mxCell>
        <mxCell id="HR6nC0uiJFTiaysMqOgH-50" style="edgeStyle=orthogonalEdgeStyle;rounded=0;orthogonalLoop=1;jettySize=auto;html=1;exitX=1;exitY=0.5;exitDx=0;exitDy=0;dashed=1;entryX=0;entryY=0.5;entryDx=0;entryDy=0;" parent="1" source="HR6nC0uiJFTiaysMqOgH-20" target="HR6nC0uiJFTiaysMqOgH-40" edge="1">
          <mxGeometry relative="1" as="geometry">
            <mxPoint x="520" y="360" as="targetPoint" />
            <Array as="points">
              <mxPoint x="540" y="540" />
              <mxPoint x="540" y="540" />
            </Array>
          </mxGeometry>
        </mxCell>
        <mxCell id="HR6nC0uiJFTiaysMqOgH-20" value="&lt;font style=&quot;font-size: 10px;&quot;&gt;Melihat Histori Pemesanan&lt;/font&gt;" style="ellipse;whiteSpace=wrap;html=1;" parent="1" vertex="1">
          <mxGeometry x="280" y="520" width="120" height="40" as="geometry" />
        </mxCell>
        <mxCell id="HR6nC0uiJFTiaysMqOgH-51" style="edgeStyle=orthogonalEdgeStyle;rounded=0;orthogonalLoop=1;jettySize=auto;html=1;entryX=0;entryY=0.5;entryDx=0;entryDy=0;dashed=1;" parent="1" source="HR6nC0uiJFTiaysMqOgH-21" target="HR6nC0uiJFTiaysMqOgH-40" edge="1">
          <mxGeometry relative="1" as="geometry">
            <Array as="points">
              <mxPoint x="480" y="600" />
              <mxPoint x="480" y="540" />
            </Array>
          </mxGeometry>
        </mxCell>
        <mxCell id="HR6nC0uiJFTiaysMqOgH-21" value="&lt;font style=&quot;font-size: 10px;&quot;&gt;Melakukan Konfirmasi Pembayaran&lt;/font&gt;" style="ellipse;whiteSpace=wrap;html=1;" parent="1" vertex="1">
          <mxGeometry x="280" y="580" width="120" height="40" as="geometry" />
        </mxCell>
        <mxCell id="HR6nC0uiJFTiaysMqOgH-52" style="edgeStyle=orthogonalEdgeStyle;rounded=0;orthogonalLoop=1;jettySize=auto;html=1;exitX=1;exitY=0.5;exitDx=0;exitDy=0;dashed=1;entryX=0;entryY=0.5;entryDx=0;entryDy=0;" parent="1" source="HR6nC0uiJFTiaysMqOgH-22" target="HR6nC0uiJFTiaysMqOgH-40" edge="1">
          <mxGeometry relative="1" as="geometry">
            <mxPoint x="520" y="360" as="targetPoint" />
            <Array as="points">
              <mxPoint x="480" y="660" />
              <mxPoint x="480" y="540" />
            </Array>
          </mxGeometry>
        </mxCell>
        <mxCell id="HR6nC0uiJFTiaysMqOgH-22" value="&lt;font style=&quot;font-size: 10px;&quot;&gt;Memberikan Testimoni&lt;/font&gt;" style="ellipse;whiteSpace=wrap;html=1;" parent="1" vertex="1">
          <mxGeometry x="280" y="640" width="120" height="40" as="geometry" />
        </mxCell>
        <mxCell id="HR6nC0uiJFTiaysMqOgH-40" value="&lt;font style=&quot;font-size: 10px;&quot;&gt;Login&lt;/font&gt;" style="ellipse;whiteSpace=wrap;html=1;" parent="1" vertex="1">
          <mxGeometry x="580" y="520" width="120" height="40" as="geometry" />
        </mxCell>
        <mxCell id="HR6nC0uiJFTiaysMqOgH-54" value="&lt;font style=&quot;font-size: 11px;&quot;&gt;&amp;lt;&amp;lt;include&amp;gt;&amp;gt;&lt;/font&gt;" style="text;html=1;align=center;verticalAlign=middle;resizable=0;points=[];autosize=1;strokeColor=none;fillColor=none;" parent="1" vertex="1">
          <mxGeometry x="490" y="510" width="80" height="30" as="geometry" />
        </mxCell>
        <mxCell id="HR6nC0uiJFTiaysMqOgH-56" value="" style="edgeStyle=orthogonalEdgeStyle;rounded=0;orthogonalLoop=1;jettySize=auto;html=1;dashed=1;" parent="1" source="HR6nC0uiJFTiaysMqOgH-55" target="HR6nC0uiJFTiaysMqOgH-40" edge="1">
          <mxGeometry relative="1" as="geometry" />
        </mxCell>
        <mxCell id="HR6nC0uiJFTiaysMqOgH-55" value="&lt;font style=&quot;font-size: 10px;&quot;&gt;Logout&lt;/font&gt;" style="ellipse;whiteSpace=wrap;html=1;" parent="1" vertex="1">
          <mxGeometry x="580" y="620" width="120" height="40" as="geometry" />
        </mxCell>
        <mxCell id="HR6nC0uiJFTiaysMqOgH-57" value="&lt;font style=&quot;font-size: 11px;&quot;&gt;&amp;lt;&amp;lt;extend&amp;gt;&amp;gt;&lt;/font&gt;" style="text;html=1;align=center;verticalAlign=middle;resizable=0;points=[];autosize=1;strokeColor=none;fillColor=none;" parent="1" vertex="1">
          <mxGeometry x="600" y="580" width="80" height="30" as="geometry" />
        </mxCell>
        <mxCell id="HUihaT8eayz2FnNqMXaq-3" style="edgeStyle=orthogonalEdgeStyle;rounded=0;orthogonalLoop=1;jettySize=auto;html=1;entryX=0;entryY=0.5;entryDx=0;entryDy=0;endArrow=none;endFill=0;" parent="1" source="HUihaT8eayz2FnNqMXaq-2" target="HR6nC0uiJFTiaysMqOgH-19" edge="1">
          <mxGeometry relative="1" as="geometry">
            <Array as="points">
              <mxPoint x="200" y="540" />
              <mxPoint x="200" y="480" />
            </Array>
          </mxGeometry>
        </mxCell>
        <mxCell id="HUihaT8eayz2FnNqMXaq-4" style="edgeStyle=orthogonalEdgeStyle;rounded=0;orthogonalLoop=1;jettySize=auto;html=1;entryX=0;entryY=0.5;entryDx=0;entryDy=0;endArrow=none;endFill=0;" parent="1" source="HUihaT8eayz2FnNqMXaq-2" target="HR6nC0uiJFTiaysMqOgH-20" edge="1">
          <mxGeometry relative="1" as="geometry" />
        </mxCell>
        <mxCell id="HUihaT8eayz2FnNqMXaq-5" style="edgeStyle=orthogonalEdgeStyle;rounded=0;orthogonalLoop=1;jettySize=auto;html=1;entryX=0;entryY=0.5;entryDx=0;entryDy=0;endArrow=none;endFill=0;" parent="1" source="HUihaT8eayz2FnNqMXaq-2" target="HR6nC0uiJFTiaysMqOgH-21" edge="1">
          <mxGeometry relative="1" as="geometry">
            <Array as="points">
              <mxPoint x="200" y="540" />
              <mxPoint x="200" y="600" />
            </Array>
          </mxGeometry>
        </mxCell>
        <mxCell id="HUihaT8eayz2FnNqMXaq-6" style="edgeStyle=orthogonalEdgeStyle;rounded=0;orthogonalLoop=1;jettySize=auto;html=1;entryX=0;entryY=0.5;entryDx=0;entryDy=0;endArrow=none;endFill=0;" parent="1" source="HUihaT8eayz2FnNqMXaq-2" target="HR6nC0uiJFTiaysMqOgH-22" edge="1">
          <mxGeometry relative="1" as="geometry">
            <Array as="points">
              <mxPoint x="200" y="540" />
              <mxPoint x="200" y="660" />
            </Array>
          </mxGeometry>
        </mxCell>
        <mxCell id="HUihaT8eayz2FnNqMXaq-7" style="edgeStyle=orthogonalEdgeStyle;rounded=0;orthogonalLoop=1;jettySize=auto;html=1;entryX=0;entryY=0.5;entryDx=0;entryDy=0;endArrow=none;endFill=0;" parent="1" source="HUihaT8eayz2FnNqMXaq-2" target="HR6nC0uiJFTiaysMqOgH-18" edge="1">
          <mxGeometry relative="1" as="geometry">
            <Array as="points">
              <mxPoint x="200" y="540" />
              <mxPoint x="200" y="420" />
            </Array>
          </mxGeometry>
        </mxCell>
        <mxCell id="HUihaT8eayz2FnNqMXaq-2" value="User" style="shape=umlActor;verticalLabelPosition=bottom;verticalAlign=top;html=1;" parent="1" vertex="1">
          <mxGeometry x="50" y="520" width="20" height="40" as="geometry" />
        </mxCell>
      </root>
    </mxGraphModel>
  </diagram>
</mxfile>
